<svg id="otp" xmlns="http://www.w3.org/2000/svg" xmlns:xlink="http://www.w3.org/1999/xlink" width="1148.346" height="584.89" viewBox="0 0 1148.346 584.89">
  <defs>
    <clipPath id="clip-path">
      <rect id="Rectángulo_391" data-name="Rectángulo 391" width="1148.346" height="584.89" fill="none"/>
    </clipPath>
    <clipPath id="clip-path-5">
      <rect id="Rectángulo_396" data-name="Rectángulo 396" width="107.174" height="25.716" transform="translate(877.418 375.405)" fill="none"/>
    </clipPath>
  </defs>
  <g id="Grupo_20613" data-name="Grupo 20613">
    <g id="Grupo_20612" data-name="Grupo 20612" clip-path="url(#clip-path)">
      <path id="Trazado_13707" data-name="Trazado 13707" d="M921.59,325.506a27,27,0,0,1-1.88,10.138,23.956,23.956,0,0,1-13.518,13.587,30,30,0,0,1-21.363,0,23.977,23.977,0,0,1-13.569-13.587,28.275,28.275,0,0,1,0-20.276,24.092,24.092,0,0,1,5.31-8.139,24.577,24.577,0,0,1,8.259-5.414,28.109,28.109,0,0,1,10.69-1.965,27.75,27.75,0,0,1,10.673,1.983,24.62,24.62,0,0,1,8.225,5.431,24.252,24.252,0,0,1,5.293,8.138,26.912,26.912,0,0,1,1.88,10.1m-11.932,0a21.715,21.715,0,0,0-.966-6.707,14.209,14.209,0,0,0-2.775-5.052,11.974,11.974,0,0,0-4.432-3.173,15.263,15.263,0,0,0-5.966-1.1,15.485,15.485,0,0,0-6.017,1.1,11.939,11.939,0,0,0-4.449,3.173,14.227,14.227,0,0,0-2.776,5.052,23.913,23.913,0,0,0,0,13.449,14.236,14.236,0,0,0,2.776,5.052,11.776,11.776,0,0,0,4.449,3.155,15.692,15.692,0,0,0,6.017,1.086,15.467,15.467,0,0,0,5.966-1.086,11.809,11.809,0,0,0,4.432-3.155,14.218,14.218,0,0,0,2.775-5.052,21.841,21.841,0,0,0,.966-6.742" fill="#e20d1b"/>
      <path id="Trazado_13708" data-name="Trazado 13708" d="M963.66,300.4v9.242H949.521v41H937.866v-41H923.727V300.4Z" fill="#e20d1b"/>
      <path id="Trazado_13709" data-name="Trazado 13709" d="M980.143,333.851v16.794H968.487V300.4h17.725a29.235,29.235,0,0,1,9.121,1.258,17.527,17.527,0,0,1,6.276,3.466,13.507,13.507,0,0,1,3.638,5.207,17.647,17.647,0,0,1,1.173,6.483,19.075,19.075,0,0,1-1.207,6.9,13.854,13.854,0,0,1-3.69,5.38,17.389,17.389,0,0,1-6.293,3.5,28.858,28.858,0,0,1-9.018,1.258Zm0-8.793h6.069q4.553,0,6.552-2.172a8.631,8.631,0,0,0,2-6.07,9.077,9.077,0,0,0-.517-3.138,6.392,6.392,0,0,0-1.569-2.431,7.064,7.064,0,0,0-2.655-1.569,11.745,11.745,0,0,0-3.811-.552h-6.069Z" fill="#e20d1b"/>
      <path id="Trazado_13710" data-name="Trazado 13710" d="M871.6,276.537v6.984h8.363v2.512H871.6v8.842H868.5v-20.85h12.922v2.512Z" fill="#585857"/>
      <path id="Trazado_13711" data-name="Trazado 13711" d="M887.836,275.564a1.8,1.8,0,0,1-.16.748,2.07,2.07,0,0,1-.428.624,1.944,1.944,0,0,1-.632.421,1.922,1.922,0,0,1-.755.153,1.819,1.819,0,0,1-.74-.153,1.989,1.989,0,0,1-.617-.421,1.963,1.963,0,0,1-.421-.624,1.871,1.871,0,0,1-.153-.748,1.907,1.907,0,0,1,.153-.762,1.979,1.979,0,0,1,.421-.625,2.006,2.006,0,0,1,.617-.421,1.835,1.835,0,0,1,.74-.152,1.939,1.939,0,0,1,.755.152,1.96,1.96,0,0,1,.632.421,2.087,2.087,0,0,1,.428.625,1.83,1.83,0,0,1,.16.762m-.537,19.311h-2.831V280.123H887.3Z" fill="#585857"/>
      <path id="Trazado_13712" data-name="Trazado 13712" d="M894.08,282.955a6.749,6.749,0,0,1,1.713-2.28,3.9,3.9,0,0,1,3.318-.718,2.335,2.335,0,0,1,.748.326l-.189,2.135a.461.461,0,0,1-.479.392,3.508,3.508,0,0,1-.61-.08,4.532,4.532,0,0,0-.871-.08,3.41,3.41,0,0,0-1.205.2,2.811,2.811,0,0,0-.937.581,3.935,3.935,0,0,0-.733.944,9.3,9.3,0,0,0-.6,1.27v9.235h-2.832V280.124h1.627a.894.894,0,0,1,.631.167,1.1,1.1,0,0,1,.24.588Z" fill="#585857"/>
      <path id="Trazado_13713" data-name="Trazado 13713" d="M902.05,294.875V280.123h1.7a.691.691,0,0,1,.74.566l.2,1.409a7.535,7.535,0,0,1,1.808-1.59,4.325,4.325,0,0,1,2.331-.617,3.467,3.467,0,0,1,2.381.806,1.3,1.3,0,1,0,2.163.834,4.7,4.7,0,0,1,1.133-.929,5.03,5.03,0,0,1,1.328-.537,5.944,5.944,0,0,1,1.431-.174,5.591,5.591,0,0,1,2.1.37,4.146,4.146,0,0,1,1.561,1.082,4.754,4.754,0,0,1,.972,1.757,7.8,7.8,0,0,1,.334,2.381v9.394h-2.846v-9.394a3.762,3.762,0,0,0-.718-2.5,2.607,2.607,0,0,0-2.1-.842,3.24,3.24,0,0,0-1.162.211,2.68,2.68,0,0,0-.966.631,3.026,3.026,0,0,0-.653,1.046,4.033,4.033,0,0,0-.239,1.452v9.394H910.7v-9.394a3.882,3.882,0,0,0-.683-2.527,2.468,2.468,0,0,0-2-.813,3.2,3.2,0,0,0-1.7.479,5.506,5.506,0,0,0-1.438,1.307v10.948Z" fill="#585857"/>
      <path id="Trazado_13714" data-name="Trazado 13714" d="M925.674,282.185a8.1,8.1,0,0,1,5.851-2.337,5.684,5.684,0,0,1,2.236.413,4.594,4.594,0,0,1,1.641,1.155,4.918,4.918,0,0,1,1.009,1.771,7.236,7.236,0,0,1,.341,2.28v9.408h-1.263a1.2,1.2,0,0,1-.639-.137.952.952,0,0,1-.348-.516l-.3-1.292a12.3,12.3,0,0,1-1.118.922,7.188,7.188,0,0,1-1.155.682,5.827,5.827,0,0,1-1.285.428,7.252,7.252,0,0,1-1.51.146,5.41,5.41,0,0,1-1.633-.24,3.682,3.682,0,0,1-1.329-.733,3.479,3.479,0,0,1-.893-1.234,4.266,4.266,0,0,1-.326-1.728,3.268,3.268,0,0,1,.472-1.677,4.247,4.247,0,0,1,1.539-1.445,9.881,9.881,0,0,1,2.787-1.045,20.861,20.861,0,0,1,4.233-.465v-1.074a3.755,3.755,0,0,0-.711-2.5,2.607,2.607,0,0,0-2.091-.827,4.551,4.551,0,0,0-1.561.232,6.015,6.015,0,0,0-1.089.516q-.457.282-.8.515a1.233,1.233,0,0,1-.7.232.806.806,0,0,1-.5-.159,1.344,1.344,0,0,1-.341-.378Zm8.3,6.142a21.529,21.529,0,0,0-2.933.269,8.007,8.007,0,0,0-1.96.559,2.654,2.654,0,0,0-1.089.82,1.78,1.78,0,0,0-.334,1.053,2.283,2.283,0,0,0,.181.951,1.77,1.77,0,0,0,.494.653,1.96,1.96,0,0,0,.733.37,3.412,3.412,0,0,0,.915.117,5.137,5.137,0,0,0,1.2-.131,4.786,4.786,0,0,0,1.023-.37,5.151,5.151,0,0,0,.915-.588,8.2,8.2,0,0,0,.857-.8Z" fill="#585857"/>
      <path id="Trazado_13715" data-name="Trazado 13715" d="M134.783,504.6a2.628,2.628,0,1,1-.769-1.821,2.485,2.485,0,0,1,.769,1.821m-20.718,0a2.625,2.625,0,0,1-2.59,2.589H106.3a2.59,2.59,0,1,1,0-5.179h5.179a2.627,2.627,0,0,1,2.59,2.59m-20.719,0v2.589h2.591a2.59,2.59,0,0,1,0,5.18H93.346v10.36h2.591a2.623,2.623,0,0,1,2.588,2.589v2.59h2.591a2.59,2.59,0,0,1,0,5.18H82.986v7.769a2.575,2.575,0,0,1-4.41,1.821,2.481,2.481,0,0,1-.768-1.821v-7.769H67.448v5.18h2.589a2.487,2.487,0,0,1,1.821.769,2.53,2.53,0,0,1,.062,3.58c-.021.021-.04.041-.062.061a2.487,2.487,0,0,1-1.821.769h-5.18a2.623,2.623,0,0,1-2.588-2.59V504.6a2.623,2.623,0,0,1,2.588-2.59h25.9a2.627,2.627,0,0,1,2.589,2.59M70.037,507.19a2.625,2.625,0,0,0-2.589,2.59v15.539a2.625,2.625,0,0,0,2.589,2.59H85.576a2.627,2.627,0,0,0,2.59-2.59V509.78a2.627,2.627,0,0,0-2.59-2.59Zm12.949,7.77v5.18a2.626,2.626,0,0,1-2.59,2.59H75.217a2.626,2.626,0,0,1-2.589-2.59v-5.18a2.626,2.626,0,0,1,2.589-2.59H80.4a2.626,2.626,0,0,1,2.59,2.59m5.18,28.488v-2.59a2.59,2.59,0,0,1,5.18,0v7.77h2.591a2.59,2.59,0,0,1,0,5.18H93.346v15.539h5.179v-5.18H95.937a2.59,2.59,0,1,1,0-5.18h7.768V556.4a2.59,2.59,0,1,1,5.18,0v5.179a2.626,2.626,0,0,1-2.589,2.59h-2.591v7.77a2.641,2.641,0,0,1-.691,1.821,2.151,2.151,0,0,1-1.657.769H93.346v5.179h2.831a2.158,2.158,0,0,1,1.661.769,2.748,2.748,0,0,1,0,3.642,2.151,2.151,0,0,1-1.661.769H91.323A.717.717,0,0,1,91,584.8a.166.166,0,0,0-.122.042.163.163,0,0,1-.121.039h-25.9a2.619,2.619,0,0,1-2.588-2.588V556.4a2.623,2.623,0,0,1,2.588-2.59h2.591v-2.59a2.484,2.484,0,0,1,.768-1.821,2.534,2.534,0,0,1,3.582-.061c.021.02.041.04.06.061a2.493,2.493,0,0,1,.77,1.821v2.588h5.18v-2.59a2.575,2.575,0,0,1,4.409-1.821,2.484,2.484,0,0,1,.769,1.823v2.588h5.18v-5.18h-2.59a2.59,2.59,0,1,1,0-5.18ZM70.037,558.987a2.625,2.625,0,0,0-2.589,2.59v15.539a2.625,2.625,0,0,0,2.589,2.59H85.576a2.626,2.626,0,0,0,2.59-2.59V561.577a2.627,2.627,0,0,0-2.59-2.59Zm12.949,7.77v5.18a2.626,2.626,0,0,1-2.59,2.59H75.217a2.626,2.626,0,0,1-2.589-2.59v-5.18a2.626,2.626,0,0,1,2.589-2.59H80.4a2.626,2.626,0,0,1,2.59,2.59M103.705,582.3a2.493,2.493,0,0,1,.77-1.821,2.531,2.531,0,0,1,3.58-.061l.062.061a2.543,2.543,0,0,1,0,3.642,2.533,2.533,0,0,1-3.582.061c-.021-.02-.041-.04-.06-.061a2.493,2.493,0,0,1-.77-1.821m5.18-36.258a2.625,2.625,0,1,1-.768-1.821,2.492,2.492,0,0,1,.768,1.821m-10.36-5.18a2.63,2.63,0,1,1,.77,1.821,2.494,2.494,0,0,1-.77-1.821m2.591-18.128a2.625,2.625,0,1,1,1.821-.769,2.494,2.494,0,0,1-1.821.769M114.065,582.3v-7.769h-2.59a2.576,2.576,0,0,1-1.821-4.411,2.49,2.49,0,0,1,1.821-.769h2.59V556.4a2.626,2.626,0,0,1,2.589-2.59h-5.179a2.59,2.59,0,1,1,0-5.18h5.179V538.269h-5.179a2.627,2.627,0,0,1-2.59-2.59V517.55H106.3a2.59,2.59,0,1,1,0-5.18h12.948v-2.59a2.59,2.59,0,0,1,5.18,0v2.59h7.769a2.625,2.625,0,0,1,2.59,2.59v7.77h7.77a2.59,2.59,0,1,1,0,5.179h-7.77v5.18h2.59a2.59,2.59,0,1,1,0,5.18h-2.59v2.589a2.59,2.59,0,1,1-5.179,0v-2.589h-7.77v15.539h12.949v-2.59a2.59,2.59,0,0,1,5.181,0v2.59h2.589a2.627,2.627,0,0,1,2.59,2.59v25.9a2.626,2.626,0,0,1-2.59,2.59h-25.9a2.625,2.625,0,0,1-2.589-2.59M129.6,530.5V520.14a2.627,2.627,0,0,0-2.59-2.59h-10.36a2.626,2.626,0,0,0-2.589,2.59V530.5a2.626,2.626,0,0,0,2.589,2.59h10.36a2.627,2.627,0,0,0,2.59-2.59m7.769,49.207a2.628,2.628,0,0,0,2.591-2.59V561.577a2.629,2.629,0,0,0-2.591-2.59H121.834a2.627,2.627,0,0,0-2.59,2.59v15.539a2.626,2.626,0,0,0,2.59,2.59Zm-12.949-7.769v-5.18a2.627,2.627,0,0,1,2.59-2.59h5.179a2.625,2.625,0,0,1,2.59,2.59v5.18a2.625,2.625,0,0,1-2.59,2.59h-5.179a2.627,2.627,0,0,1-2.59-2.59m-5.18-46.618a2.628,2.628,0,1,1,.769,1.821,2.485,2.485,0,0,1-.769-1.821m5.18,20.719a2.626,2.626,0,1,1,.769,1.821,2.489,2.489,0,0,1-.769-1.821m15.54-5.18a2.626,2.626,0,1,1,.768,1.821,2.48,2.48,0,0,1-.768-1.821m0-25.9v-2.59h-2.591a2.59,2.59,0,1,1,0-5.18h2.591V504.6a2.59,2.59,0,1,1,5.179,0V514.96a2.59,2.59,0,1,1-5.179,0" fill="#575755"/>
      <path id="Trazado_13716" data-name="Trazado 13716" d="M732.5,413.326v26.163a73.924,73.924,0,0,1-73.924,73.925h-281.5a73.924,73.924,0,0,1-73.924-73.925V385.642" fill="none" stroke="#b5d09a" stroke-linecap="round" stroke-linejoin="round" stroke-width="7.86"/>
      <path id="Trazado_13717" data-name="Trazado 13717" d="M323.36,140.795H658.58A73.924,73.924,0,0,1,732.5,214.719" fill="none" stroke="#b5d09a" stroke-linecap="round" stroke-linejoin="round" stroke-width="7.86"/>
      <line id="Línea_78" data-name="Línea 78" y1="28.517" transform="translate(303.157 246.708)" fill="none" stroke="#b5d09a" stroke-linecap="round" stroke-linejoin="round" stroke-width="7.86"/>
      <path id="Trazado_13718" data-name="Trazado 13718" d="M789.93,214.72A73.924,73.924,0,0,1,863.854,140.8H997.488a73.925,73.925,0,0,1,73.925,73.924V439.49a73.925,73.925,0,0,1-73.925,73.924H863.854A73.924,73.924,0,0,1,789.93,439.49V414.1" fill="none" stroke="#c11220" stroke-linecap="round" stroke-linejoin="round" stroke-width="5.843"/>
      <path id="Trazado_13719" data-name="Trazado 13719" d="M82.71,352.257v1.191a4.72,4.72,0,0,1-1.381,3.335l-3.335,3.334h34.585l-3.334-3.334a4.717,4.717,0,0,1-1.382-3.335v-7.479" fill="none" stroke="#484748" stroke-width="3.144"/>
      <path id="Trazado_13720" data-name="Trazado 13720" d="M144.021,296.959V279.941a4.716,4.716,0,0,0-4.716-4.716" fill="none" stroke="#484748" stroke-width="3.144"/>
      <path id="Trazado_13721" data-name="Trazado 13721" d="M51.269,275.225a4.715,4.715,0,0,0-4.716,4.716v61.311a4.715,4.715,0,0,0,4.716,4.716h59.738" fill="none" stroke="#484748" stroke-width="3.144"/>
      <line id="Línea_79" data-name="Línea 79" x1="47.162" transform="translate(46.553 333.392)" fill="none" stroke="#484748" stroke-width="3.144"/>
      <path id="Trazado_13722" data-name="Trazado 13722" d="M133.017,304.155V264.221a1.572,1.572,0,0,0-1.572-1.572H59.129a1.572,1.572,0,0,0-1.572,1.572V323.96" fill="none" stroke="#484748" stroke-width="3.144"/>
      <line id="Línea_80" data-name="Línea 80" x2="75.46" transform="translate(57.557 278.369)" fill="none" stroke="#484748" stroke-width="3.144"/>
      <line id="Línea_81" data-name="Línea 81" x2="3.144" transform="translate(65.417 270.509)" fill="none" stroke="#484748" stroke-width="3.144"/>
      <line id="Línea_82" data-name="Línea 82" x2="3.144" transform="translate(73.278 270.509)" fill="none" stroke="#484748" stroke-width="3.144"/>
      <line id="Línea_83" data-name="Línea 83" x2="3.144" transform="translate(81.138 270.509)" fill="none" stroke="#484748" stroke-width="3.144"/>
      <rect id="Rectángulo_390" data-name="Rectángulo 390" width="47.162" height="11.005" transform="translate(71.706 287.801)" fill="none" stroke="#484748" stroke-width="3.144"/>
      <line id="Línea_84" data-name="Línea 84" x2="3.144" transform="translate(70.134 308.239)" fill="none" stroke="#484748" stroke-width="3.144"/>
      <line id="Línea_85" data-name="Línea 85" x2="3.144" transform="translate(70.134 314.527)" fill="none" stroke="#484748" stroke-width="3.144"/>
      <line id="Línea_86" data-name="Línea 86" x2="3.144" transform="translate(70.134 320.815)" fill="none" stroke="#484748" stroke-width="3.144"/>
      <line id="Línea_87" data-name="Línea 87" x2="3.144" transform="translate(76.422 320.815)" fill="none" stroke="#484748" stroke-width="3.144"/>
      <line id="Línea_88" data-name="Línea 88" x2="3.144" transform="translate(82.71 320.815)" fill="none" stroke="#484748" stroke-width="3.144"/>
      <line id="Línea_89" data-name="Línea 89" x2="3.144" transform="translate(82.71 314.527)" fill="none" stroke="#484748" stroke-width="3.144"/>
      <line id="Línea_90" data-name="Línea 90" x2="3.144" transform="translate(76.422 308.239)" fill="none" stroke="#484748" stroke-width="3.144"/>
      <line id="Línea_91" data-name="Línea 91" x2="3.144" transform="translate(82.71 308.239)" fill="none" stroke="#484748" stroke-width="3.144"/>
      <path id="Trazado_13723" data-name="Trazado 13723" d="M115.724,332.606h9.432c5.236-3.926,9.967-7.542,12.546-13.648,1.976-4.677,1.6-6.552,1.6-11.505,0,0,4.716-3.144,6.288,6.288.521,3.126,0,11.005-1.572,14.149" fill="none" stroke="#484748" stroke-width="3.144"/>
      <path id="Trazado_13724" data-name="Trazado 13724" d="M158.17,334.178a3.144,3.144,0,1,1,0,6.288h-3.144" fill="none" stroke="#484748" stroke-width="3.144"/>
      <path id="Trazado_13725" data-name="Trazado 13725" d="M156.6,340.466a3.144,3.144,0,1,1,0,6.288h-3.144" fill="none" stroke="#484748" stroke-width="3.144"/>
      <path id="Trazado_13726" data-name="Trazado 13726" d="M155.026,346.755a3.144,3.144,0,1,1,0,6.288H144.754a55.065,55.065,0,0,1-10.791-1.068l-2.518-.5h-7.861" fill="none" stroke="#484748" stroke-width="3.144"/>
      <path id="Trazado_13727" data-name="Trazado 13727" d="M144.021,327.89H158.17a3.144,3.144,0,1,1,0,6.288h-3.144" fill="none" stroke="#484748" stroke-width="3.144"/>
      <text id="NADA_CAMBIA_EN_LA" data-name="NADA CAMBIA EN LA" transform="translate(8.06 16.988)" fill="#585857" font-size="18.865" font-family="Lato-Black, Lato" font-weight="800"><tspan x="0" y="0">NA</tspan><tspan y="0" letter-spacing="-0.029em">D</tspan><tspan y="0">A CAMBIA EN LA</tspan></text>
    </g>
  </g>
  <text id="EXPERIENCIA_DEL_" data-name="EXPERIENCIA DEL " transform="translate(23.388 39.625)" fill="#585857" font-size="18.865" font-family="Lato-Black, Lato" font-weight="800"><tspan x="0" y="0">EXPERIENCIA DEL </tspan></text>
  <text id="USUARIO" transform="translate(61.382 62.263)" fill="#585857" font-size="18.865" font-family="Lato-Black, Lato" font-weight="800"><tspan x="0" y="0">US</tspan><tspan y="0" letter-spacing="-0.024em">U</tspan><tspan y="0">ARIO</tspan></text>
  <g id="Grupo_20615" data-name="Grupo 20615">
    <g id="Grupo_20614" data-name="Grupo 20614" clip-path="url(#clip-path)">
      <text id="LA_APLICACIÓN_EMPRESARIAL_" data-name="LA APLICACIÓN EMPRESARIAL " transform="translate(266.938 16.988)" fill="#585857" font-size="18.865" font-family="Lato-Black, Lato" font-weight="800"><tspan x="0" y="0">LA APLIC</tspan><tspan y="0" letter-spacing="-0.03em">A</tspan><tspan y="0">CIÓN EMPRESARIAL </tspan></text>
    </g>
  </g>
  <text id="INVOCA_LA_FIRMA_VÍA_API_SÓLO_" data-name="INVOCA LA FIRMA VÍA API SÓLO " transform="translate(258.628 39.625)" fill="#585857" font-size="18.865" font-family="Lato-Black, Lato" font-weight="800"><tspan x="0" y="0">IN</tspan><tspan y="0" letter-spacing="-0.029em">V</tspan><tspan y="0">OCA LA FIRMA VÍA API SÓ</tspan><tspan y="0" letter-spacing="-0.039em">L</tspan><tspan y="0">O </tspan></text>
  <text id="CUANDO_SEA_NECESARIO" data-name="CUANDO SEA NECESARIO" transform="translate(289.717 62.263)" fill="#585857" font-size="18.865" font-family="Lato-Black, Lato" font-weight="800"><tspan x="0" y="0">C</tspan><tspan y="0" letter-spacing="-0.025em">U</tspan><tspan y="0">ANDO SEA NECESARIO</tspan></text>
  <g id="Grupo_20617" data-name="Grupo 20617">
    <g id="Grupo_20616" data-name="Grupo 20616" clip-path="url(#clip-path)">
      <text id="UANATACA_AUTENTIFICA_AL_USUARIO_FIRMA_" data-name="UANATACA AUTENTIFICA AL USUARIO, FIRMA " transform="translate(723.804 16.988)" fill="#585857" font-size="18.865" font-family="Lato-Black, Lato" font-weight="800"><tspan x="0" y="0" letter-spacing="-0.025em">U</tspan><tspan y="0">AN</tspan><tspan y="0" letter-spacing="-0.08em">A</tspan><tspan y="0" letter-spacing="-0.079em">T</tspan><tspan y="0" letter-spacing="-0.03em">A</tspan><tspan y="0">CA </tspan><tspan y="0" letter-spacing="-0.024em">A</tspan><tspan y="0">UTENTIFICA AL US</tspan><tspan y="0" letter-spacing="-0.024em">U</tspan><tspan y="0">ARI</tspan><tspan y="0" letter-spacing="-0.025em">O</tspan><tspan y="0">, FIRMA </tspan></text>
    </g>
  </g>
  <text id="EL_DOCUMENTO_Y_GENERA_UN_INFORME_DE_" data-name="EL DOCUMENTO Y GENERA UN INFORME DE " transform="translate(734.209 39.625)" fill="#585857" font-size="18.865" font-family="Lato-Black, Lato" font-weight="800"><tspan x="0" y="0">EL DOCUMEN</tspan><tspan y="0" letter-spacing="-0.029em">T</tspan><tspan y="0">O Y GENERA UN INFORME DE </tspan></text>
  <text id="PRUEBAS_DE_AUDITORÍA" data-name="PRUEBAS DE AUDITORÍA" transform="translate(819.855 62.263)" fill="#585857" font-size="18.865" font-family="Lato-Black, Lato" font-weight="800"><tspan x="0" y="0">P</tspan><tspan y="0" letter-spacing="-0.03em">R</tspan><tspan y="0">UEBAS DE </tspan><tspan y="0" letter-spacing="-0.024em">A</tspan><tspan y="0">UDI</tspan><tspan y="0" letter-spacing="-0.029em">T</tspan><tspan y="0">ORÍA</tspan></text>
  <text id="REPORTE_DE_EVIDENCIAS_" data-name="REPORTE DE EVIDENCIAS " transform="translate(864.854 472.853)" fill="#585857" font-size="12" font-family="Lato-Black, Lato" font-weight="800"><tspan x="0" y="0">REPO</tspan><tspan y="0" letter-spacing="-0.029em">R</tspan><tspan y="0">TE DE EVIDENCIAS </tspan></text>
  <text id="ELECTRÓNICAS_PROBATORIAS_" data-name="ELECTRÓNICAS PROBATORIAS " transform="translate(850.009 487.253)" fill="#585857" font-size="12" font-family="Lato-Black, Lato" font-weight="800"><tspan x="0" y="0">ELECT</tspan><tspan y="0" letter-spacing="-0.024em">R</tspan><tspan y="0">ÓNICAS P</tspan><tspan y="0" letter-spacing="-0.024em">R</tspan><tspan y="0">OB</tspan><tspan y="0" letter-spacing="-0.08em">A</tspan><tspan y="0" letter-spacing="-0.029em">T</tspan><tspan y="0">ORIAS </tspan></text>
  <g id="Grupo_20619" data-name="Grupo 20619">
    <g id="Grupo_20618" data-name="Grupo 20618" clip-path="url(#clip-path)">
      <path id="Trazado_13728" data-name="Trazado 13728" d="M774.015,351.347v-34.89l-12.171-12.171H725.331a1.623,1.623,0,0,0-1.622,1.623v45.438" fill="none" stroke="#484748" stroke-width="3.144"/>
      <path id="Trazado_13729" data-name="Trazado 13729" d="M774.015,316.457H762.656a.811.811,0,0,1-.812-.811V312.4" fill="none" stroke="#484748" stroke-width="3.144"/>
      <path id="Trazado_13730" data-name="Trazado 13730" d="M755.419,354.593H742.3a3.989,3.989,0,0,1-3.99-3.99V335.931h21.1V350.6A3.989,3.989,0,0,1,755.419,354.593Z" fill="none" stroke="#484748" stroke-width="3.144"/>
      <path id="Trazado_13731" data-name="Trazado 13731" d="M741.559,335.931v-4.057a7.3,7.3,0,1,1,14.6,0v4.057" fill="none" stroke="#484748" stroke-width="3.144"/>
      <path id="Trazado_13732" data-name="Trazado 13732" d="M747.239,345.036V348.1a1.623,1.623,0,1,0,3.246,0v-3.066a2.434,2.434,0,1,0-3.246,0Z" fill="none" stroke="#484748" stroke-width="3.144"/>
      <path id="Trazado_13733" data-name="Trazado 13733" d="M456.953,332.381V283.647a1.572,1.572,0,0,0-1.572-1.572H383.065a1.572,1.572,0,0,0-1.572,1.572v68.385h75.46v-7.074" fill="none" stroke="#484748" stroke-width="3.144"/>
      <line id="Línea_92" data-name="Línea 92" x2="75.46" transform="translate(381.494 297.795)" fill="none" stroke="#484748" stroke-width="3.144"/>
      <line id="Línea_93" data-name="Línea 93" x2="3.144" transform="translate(389.354 289.935)" fill="none" stroke="#484748" stroke-width="3.144"/>
      <line id="Línea_94" data-name="Línea 94" x2="3.144" transform="translate(397.215 289.935)" fill="none" stroke="#484748" stroke-width="3.144"/>
      <line id="Línea_95" data-name="Línea 95" x2="3.144" transform="translate(405.075 289.935)" fill="none" stroke="#484748" stroke-width="3.144"/>
      <rect id="Rectángulo_394" data-name="Rectángulo 394" width="47.162" height="11.005" transform="translate(395.643 307.227)" fill="none" stroke="#484748" stroke-width="3.144"/>
      <line id="Línea_96" data-name="Línea 96" x2="3.144" transform="translate(394.07 327.665)" fill="none" stroke="#484748" stroke-width="3.144"/>
      <line id="Línea_97" data-name="Línea 97" x2="3.144" transform="translate(394.07 333.953)" fill="none" stroke="#484748" stroke-width="3.144"/>
      <line id="Línea_98" data-name="Línea 98" x2="3.144" transform="translate(394.07 340.242)" fill="none" stroke="#484748" stroke-width="3.144"/>
      <line id="Línea_99" data-name="Línea 99" x2="3.144" transform="translate(400.359 340.242)" fill="none" stroke="#484748" stroke-width="3.144"/>
      <line id="Línea_100" data-name="Línea 100" x2="3.144" transform="translate(406.647 340.242)" fill="none" stroke="#484748" stroke-width="3.144"/>
      <line id="Línea_101" data-name="Línea 101" x2="3.144" transform="translate(406.647 333.953)" fill="none" stroke="#484748" stroke-width="3.144"/>
      <line id="Línea_102" data-name="Línea 102" x2="3.144" transform="translate(400.359 327.665)" fill="none" stroke="#484748" stroke-width="3.144"/>
      <line id="Línea_103" data-name="Línea 103" x2="3.144" transform="translate(406.647 327.665)" fill="none" stroke="#484748" stroke-width="3.144"/>
    </g>
  </g>
  <g id="Grupo_20621" data-name="Grupo 20621">
    <g id="Grupo_20620" data-name="Grupo 20620" clip-path="url(#clip-path-5)">
      <path id="Trazado_13734" data-name="Trazado 13734" d="M925.4,383.866h.963v8.114a1.6,1.6,0,0,1-1.6,1.6h-.786V392.16a3.689,3.689,0,0,1-3.151,1.713c-2.876.019-5.005-1.753-5.005-5.161a4.728,4.728,0,0,1,5.063-5.082,3.566,3.566,0,0,1,3.093,1.575,1.423,1.423,0,0,1,1.42-1.339m-7.173,4.846a2.839,2.839,0,0,0,3.6,2.882c3.01-.6,3-5.173-.015-5.749a2.83,2.83,0,0,0-3.583,2.867" fill="#b7171c"/>
      <path id="Trazado_13735" data-name="Trazado 13735" d="M934.607,393.578v-5.223a2.411,2.411,0,0,0-2.033-2.442,2.6,2.6,0,0,0-2.794,2.65v5.015H927.4v-8.137a1.594,1.594,0,0,1,1.6-1.594h.709v1.32a4.374,4.374,0,0,1,3.191-1.458c2.286,0,4.117,1.714,4.117,4.767v3.5a1.6,1.6,0,0,1-1.6,1.6Z" fill="#b7171c"/>
      <path id="Trazado_13736" data-name="Trazado 13736" d="M947.186,383.866h.963v8.119a1.593,1.593,0,0,1-1.593,1.592h-.79V392.16a3.688,3.688,0,0,1-3.151,1.713c-2.876.019-5.005-1.753-5.005-5.161a4.728,4.728,0,0,1,5.063-5.082,3.565,3.565,0,0,1,3.093,1.575,1.423,1.423,0,0,1,1.42-1.339m-7.173,4.846a2.839,2.839,0,0,0,3.6,2.882c3.01-.6,3-5.173-.015-5.749a2.83,2.83,0,0,0-3.583,2.867" fill="#b7171c"/>
      <path id="Trazado_13737" data-name="Trazado 13737" d="M948.873,390.15c0,2.423,1.379,3.625,3.488,3.546a5.374,5.374,0,0,0,1.989-.414l-.67-2.049a2.734,2.734,0,0,1-1.162.3,1.206,1.206,0,0,1-1.261-1.379v-4.2h2.7v-2.068h-2.679v-2.5h-.8a1.6,1.6,0,0,0-1.6,1.6v7.165Z" fill="#b7171c"/>
      <path id="Trazado_13738" data-name="Trazado 13738" d="M963.854,383.866h.963v8.114a1.6,1.6,0,0,1-1.6,1.6h-.785V392.16a3.688,3.688,0,0,1-3.151,1.713c-2.876.019-5.005-1.753-5.005-5.161a4.728,4.728,0,0,1,5.063-5.082,3.565,3.565,0,0,1,3.093,1.575,1.423,1.423,0,0,1,1.42-1.339m-7.173,4.846a2.839,2.839,0,0,0,3.6,2.882c3.01-.6,3-5.173-.015-5.749a2.83,2.83,0,0,0-3.583,2.867" fill="#b7171c"/>
      <path id="Trazado_13739" data-name="Trazado 13739" d="M974.459,392.337a5,5,0,0,1-3.744,1.537,5.142,5.142,0,1,1,0-10.283,4.612,4.612,0,0,1,3.507,1.438l-1.517,1.6a2.947,2.947,0,0,0-1.95-.768,2.731,2.731,0,0,0-2.8,2.876,2.646,2.646,0,0,0,2.757,2.836,2.918,2.918,0,0,0,2.128-.807Z" fill="#b7171c"/>
      <path id="Trazado_13740" data-name="Trazado 13740" d="M983.629,383.866h.963v8.115a1.6,1.6,0,0,1-1.6,1.6h-.787V392.16a3.688,3.688,0,0,1-3.151,1.713c-2.876.019-5.005-1.753-5.005-5.161a4.728,4.728,0,0,1,5.063-5.082,3.565,3.565,0,0,1,3.093,1.575,1.423,1.423,0,0,1,1.42-1.339m-7.173,4.846a2.839,2.839,0,0,0,3.6,2.882c3.01-.6,3-5.173-.015-5.749a2.83,2.83,0,0,0-3.583,2.867" fill="#b7171c"/>
      <path id="Trazado_13741" data-name="Trazado 13741" d="M907.628,384.057v5.2a2.4,2.4,0,0,0,2.021,2.43,2.582,2.582,0,0,0,2.78-2.635v-3.4a1.587,1.587,0,0,1,1.587-1.587h.784v8.1a1.584,1.584,0,0,1-1.585,1.584h-.709v-1.313a4.3,4.3,0,0,1-3.272,1.45c-2.312,0-4-1.743-4-4.742v-3.484a1.591,1.591,0,0,1,1.591-1.591Z" fill="#b7171c"/>
      <path id="Trazado_13742" data-name="Trazado 13742" d="M896.839,375.406a10.321,10.321,0,0,1-13.818.011,2.12,2.12,0,0,0,.372,3.312,12.78,12.78,0,0,0,13.076-.008,2.122,2.122,0,0,0,.37-3.315" fill="#b7171c"/>
      <path id="Trazado_13743" data-name="Trazado 13743" d="M899.394,380.412l-.33-.381-.357.357a3.33,3.33,0,0,0-.561,3.927A9.26,9.26,0,0,1,891,397.807a9.458,9.458,0,0,1-1.06.059,9.261,9.261,0,0,1-8.213-13.546,3.328,3.328,0,0,0-.569-3.921l-.357-.357-.33.382A12.512,12.512,0,0,0,889.22,401.1c.239.013.479.02.716.02a12.511,12.511,0,0,0,9.458-20.709" fill="#585857"/>
      <path id="Trazado_13744" data-name="Trazado 13744" d="M895.2,388.473a5.265,5.265,0,1,0-5.266,5.265,5.266,5.266,0,0,0,5.266-5.265" fill="#b7171c"/>
    </g>
  </g>
  <g id="Grupo_20623" data-name="Grupo 20623">
    <g id="Grupo_20622" data-name="Grupo 20622" clip-path="url(#clip-path)">
      <path id="Trazado_13745" data-name="Trazado 13745" d="M826.124,287.265a.973.973,0,0,1,.31-.714l13.2-12.336-13.119-12.338a.978.978,0,0,1,1.339-1.425l13.879,13.053a.977.977,0,0,1,.308.712h0a.981.981,0,0,1-.31.713l-13.958,13.048a.977.977,0,0,1-1.645-.714" fill="#484748"/>
      <path id="Trazado_13746" data-name="Trazado 13746" d="M625.784,274.214a.978.978,0,0,1,.978-.978H840.213a.978.978,0,0,1,0,1.956H626.762a.978.978,0,0,1-.978-.978" fill="#484748"/>
      <path id="Trazado_13747" data-name="Trazado 13747" d="M641.7,397.715a.973.973,0,0,0-.31-.714l-13.2-12.336,13.119-12.338a.978.978,0,0,0-1.339-1.425l-13.879,13.053a.977.977,0,0,0-.308.712h0a.981.981,0,0,0,.31.713l13.958,13.048a.977.977,0,0,0,1.645-.714" fill="#484748"/>
      <path id="Trazado_13748" data-name="Trazado 13748" d="M831.678,384.665a.978.978,0,0,0-.978-.978H627.608a.978.978,0,0,0,0,1.956H830.7a.978.978,0,0,0,.978-.978" fill="#484748"/>
      <path id="Trazado_13749" data-name="Trazado 13749" d="M288.79,359.385a2.307,2.307,0,0,1-.884-.174c-.62-.257-1.659-1.026-1.66-3.3v-9.5a3.117,3.117,0,0,0-3.112-3.112l-30.123,0a5.585,5.585,0,0,1-5.57-5.569l0-14.793a5.581,5.581,0,0,1,5.567-5.568l30.123,0a3.116,3.116,0,0,0,3.11-3.112l0-10.347c0-2.272,1.04-3.042,1.66-3.3a2.3,2.3,0,0,1,.883-.173,3.825,3.825,0,0,1,2.624,1.332l24.2,24.2a5.574,5.574,0,0,1,0,7.873l-24.2,24.2a3.824,3.824,0,0,1-2.622,1.333m-5.655-18.544a5.579,5.579,0,0,1,5.57,5.569v10.874l25.174-25.174a3.113,3.113,0,0,0,0-4.4L288.7,302.541v11.72a5.578,5.578,0,0,1-5.568,5.57H253.012a3.122,3.122,0,0,0-3.11,3.109l0,14.792a3.121,3.121,0,0,0,3.114,3.112Z" fill="#3e3e3d"/>
      <path id="Trazado_13750" data-name="Trazado 13750" d="M235.562,342.181a5.269,5.269,0,0,1-3.707-1.782l-24.2-24.2a7.111,7.111,0,0,1,0-10.05l24.2-24.2a5.273,5.273,0,0,1,3.712-1.779,3.9,3.9,0,0,1,1.471.283c.784.326,2.611,1.44,2.609,4.722v9.5a1.58,1.58,0,0,0,1.546,1.571l30.154,0a7.112,7.112,0,0,1,7.076,6.457h-2.474a4.613,4.613,0,0,0-1.318-2.636,4.451,4.451,0,0,0-3.137-1.366c-.057,0-.114,0-.172,0l-30.1,0-.1,0a3.939,3.939,0,0,1-2.75-1.185,4,4,0,0,1-1.183-2.847v-9.5c0-1.286-.387-2.156-1.091-2.449a1.368,1.368,0,0,0-.525-.1,3.023,3.023,0,0,0-1.979,1.063l-24.2,24.2a4.653,4.653,0,0,0,0,6.574l24.2,24.2a3.011,3.011,0,0,0,1.976,1.062,1.356,1.356,0,0,0,.522-.1c.707-.291,1.1-1.165,1.1-2.46l-.064-9.593,2.458-.017.065,9.6c0,3.3-1.828,4.416-2.614,4.739a3.859,3.859,0,0,1-1.471.287" fill="#3e3e3d"/>
    </g>
  </g>
  <text id="_01" data-name="01" transform="translate(529.005 263.21)" fill="#d8d8d8" font-size="49.704" font-family="Lato-Black, Lato" font-weight="800"><tspan x="0" y="0">01</tspan></text>
  <text id="_02" data-name="02" transform="translate(529.005 397.013)" fill="#d8d8d8" font-size="49.704" font-family="Lato-Black, Lato" font-weight="800"><tspan x="0" y="0">02</tspan></text>
  <text id="BUSINESS" transform="translate(392.848 376.111)" fill="#585857" font-size="10.127" font-family="Lato-Black, Lato" font-weight="800"><tspan x="0" y="0">BUSINESS</tspan></text>
  <text id="APP" transform="translate(406.195 388.263)" fill="#585857" font-size="10.127" font-family="Lato-Black, Lato" font-weight="800"><tspan x="0" y="0">APP</tspan></text>
  <text id="DOCUMENTOS" transform="translate(504.564 284.135)" fill="#b5d09a" font-size="15.721" font-family="Lato-Black, Lato" font-weight="800"><tspan x="0" y="0">DOCUMEN</tspan><tspan y="0" letter-spacing="-0.029em">T</tspan><tspan y="0">OS</tspan></text>
  <text id="PARA_FIRMAR" data-name="PARA FIRMAR" transform="translate(507.143 303)" fill="#b5d09a" font-size="15.721" font-family="Lato-Black, Lato" font-weight="800"><tspan x="0" y="0" letter-spacing="-0.084em">P</tspan><tspan y="0">ARA FIRMAR</tspan></text>
  <text id="CUSTOMER" transform="translate(215.573 182.828)" fill="#b5d09a" font-size="30" font-family="Lato-Black, Lato" font-weight="800"><tspan x="0" y="0">CUS</tspan><tspan y="0" letter-spacing="-0.03em">T</tspan><tspan y="0">OMER</tspan></text>
  <text id="BUSINESS_LAYER" data-name="BUSINESS LAYER" transform="translate(178.943 218.828)" fill="#b5d09a" font-size="30" font-family="Lato-Black, Lato" font-weight="800"><tspan x="0" y="0">BUSINESS L</tspan><tspan y="0" letter-spacing="-0.1em">A</tspan><tspan y="0">YER</tspan></text>
  <text id="DOCUMENTOS-2" data-name="DOCUMENTOS" transform="translate(504.564 424.312)" fill="#b5d09a" font-size="15.721" font-family="Lato-Black, Lato" font-weight="800"><tspan x="0" y="0">DOCUMEN</tspan><tspan y="0" letter-spacing="-0.029em">T</tspan><tspan y="0">OS</tspan></text>
  <text id="FIRMADOS" transform="translate(518.666 443.177)" fill="#b5d09a" font-size="15.721" font-family="Lato-Black, Lato" font-weight="800"><tspan x="0" y="0">FIRMADOS</tspan></text>
  <g id="Grupo_20625" data-name="Grupo 20625">
    <g id="Grupo_20624" data-name="Grupo 20624" clip-path="url(#clip-path)">
      <circle id="Elipse_222" data-name="Elipse 222" cx="87.996" cy="87.996" r="87.996" transform="translate(15.747 223.18)" fill="none" stroke="#db9383" stroke-linecap="round" stroke-linejoin="round" stroke-width="7.86"/>
      <line id="Línea_104" data-name="Línea 104" y2="152.918" transform="translate(103.742 88.175)" fill="none" stroke="#db9383" stroke-linecap="round" stroke-linejoin="round" stroke-width="1.572"/>
      <path id="Trazado_13751" data-name="Trazado 13751" d="M97.831,88.471a5.911,5.911,0,1,1,5.911,5.911,5.912,5.912,0,0,1-5.911-5.911" fill="#db9383"/>
      <path id="Trazado_13752" data-name="Trazado 13752" d="M97.831,240.8a5.911,5.911,0,1,0,5.911-5.911,5.912,5.912,0,0,0-5.911,5.911" fill="#db9383"/>
      <line id="Línea_105" data-name="Línea 105" y2="152.918" transform="translate(414.576 88.175)" fill="none" stroke="#b5d09a" stroke-linecap="round" stroke-linejoin="round" stroke-width="1.572"/>
      <path id="Trazado_13753" data-name="Trazado 13753" d="M408.665,88.471a5.91,5.91,0,1,1,5.911,5.911,5.912,5.912,0,0,1-5.911-5.911" fill="#b5d09a"/>
      <path id="Trazado_13754" data-name="Trazado 13754" d="M408.665,240.8a5.91,5.91,0,1,0,5.911-5.911,5.912,5.912,0,0,0-5.911,5.911" fill="#b5d09a"/>
      <line id="Línea_106" data-name="Línea 106" y2="152.918" transform="translate(931.005 88.175)" fill="none" stroke="#c11220" stroke-linecap="round" stroke-linejoin="round" stroke-width="1.572"/>
      <path id="Trazado_13755" data-name="Trazado 13755" d="M925.094,88.471a5.91,5.91,0,1,1,5.911,5.911,5.912,5.912,0,0,1-5.911-5.911" fill="#c11220"/>
      <path id="Trazado_13756" data-name="Trazado 13756" d="M925.094,240.8a5.91,5.91,0,1,0,5.911-5.911,5.912,5.912,0,0,0-5.911,5.911" fill="#c11220"/>
      <path id="Trazado_13757" data-name="Trazado 13757" d="M178.89,548.7H756.164V472.357h85" fill="none" stroke="#db9383" stroke-linecap="round" stroke-linejoin="round" stroke-width="1.572"/>
      <path id="Trazado_13758" data-name="Trazado 13758" d="M179.186,554.612a5.91,5.91,0,1,1,5.91-5.911,5.912,5.912,0,0,1-5.91,5.911" fill="#db9383"/>
      <path id="Trazado_13759" data-name="Trazado 13759" d="M840.869,478.268a5.911,5.911,0,1,0-5.911-5.911,5.912,5.912,0,0,0,5.911,5.911" fill="#db9383"/>
    </g>
  </g>
</svg>
